<?xml version="1.0"?>
<svg xmlns="http://www.w3.org/2000/svg" height="512px" version="1.1" viewBox="-43 0 512 512.00002" width="512px" class=""><g><g id="surface1">
<path d="M 405.535156 83.828125 C 423.324219 60.675781 423.320312 39.507812 423.320312 15.304688 L 423.320312 15 C 423.320312 6.71875 416.605469 0 408.320312 0 L 407.183594 0 C 384.027344 -0.00390625 363.757812 -0.0078125 341.152344 16.570312 C 302.832031 5.9375 258.152344 0.078125 214.347656 0 C 169.746094 -0.0742188 124.367188 5.785156 85.488281 16.570312 C 62.882812 -0.0078125 42.625 0.0117188 19.457031 0 L 18.320312 0 C 10.039062 0 3.320312 6.714844 3.320312 15 L 3.320312 15.304688 C 3.320312 39.507812 3.320312 60.675781 21.109375 83.828125 C 6.027344 151.03125 -0.675781 208.941406 0.0546875 265.511719 C 0.703125 316.015625 7.214844 366.457031 21.105469 428.171875 C 3.320312 451.324219 3.320312 472.492188 3.320312 496.695312 L 3.320312 497 C 3.320312 505.28125 10.039062 512 18.320312 512 L 19.4375 512 C 42.601562 512.003906 62.902344 512.007812 85.523438 495.402344 C 124.277344 506.136719 169.339844 512 213.480469 512 C 213.769531 512 214.058594 512 214.347656 512 C 257.992188 511.921875 302.664062 506.054688 341.117188 495.402344 C 363.738281 512.007812 384.046875 511.996094 407.203125 512 L 408.320312 512 C 416.605469 512 423.320312 505.28125 423.320312 497 L 423.320312 496.695312 C 423.320312 472.492188 423.320312 451.324219 405.535156 428.171875 C 419.339844 366.851562 425.851562 316.820312 426.585938 266.847656 C 427.421875 209.839844 420.71875 151.5 405.535156 83.828125 Z M 378.078125 442.042969 C 389.898438 455.269531 392.550781 466.269531 393.148438 481.847656 C 378.03125 481.296875 367.328125 478.800781 354.1875 467.484375 C 350.304688 464.140625 344.988281 463.011719 340.085938 464.480469 C 302.695312 475.703125 258.019531 481.921875 214.292969 482 C 169.832031 482.101562 124.457031 475.855469 86.554688 464.480469 C 85.136719 464.054688 83.683594 463.847656 82.246094 463.847656 C 78.695312 463.847656 75.210938 465.105469 72.453125 467.484375 C 59.308594 478.804688 48.613281 481.296875 33.492188 481.847656 C 34.089844 466.269531 36.742188 455.269531 48.558594 442.042969 C 51.808594 438.40625 53.085938 433.417969 51.988281 428.671875 C 26.71875 319.3125 18.617188 227.746094 51.988281 83.328125 C 53.085938 78.578125 51.808594 73.59375 48.558594 69.957031 C 36.742188 56.730469 34.089844 45.730469 33.492188 30.152344 C 48.601562 30.699219 59.292969 33.191406 72.433594 44.5 C 76.316406 47.839844 81.636719 48.96875 86.539062 47.492188 C 124.28125 36.136719 169.648438 29.921875 214.292969 30 C 258.191406 30.078125 302.871094 36.289062 340.101562 47.492188 C 345.003906 48.96875 350.324219 47.839844 354.207031 44.5 C 367.347656 33.191406 378.039062 30.699219 393.148438 30.152344 C 392.550781 45.730469 389.898438 56.730469 378.078125 69.957031 C 374.832031 73.59375 373.550781 78.582031 374.648438 83.328125 C 408.019531 227.746094 399.917969 319.308594 374.648438 428.671875 C 373.554688 433.421875 374.832031 438.40625 378.078125 442.042969 Z M 378.078125 442.042969 " data-original="#000000" class="active-path" data-old_color="#F9F5F5" fill="#FCFCFB"/>
<path d="M 318.320312 135 C 318.320312 126.714844 311.605469 120 303.320312 120 C 273.96875 120 247.394531 132.113281 228.320312 151.597656 L 228.320312 135 C 228.320312 126.714844 221.605469 120 213.320312 120 C 205.035156 120 198.320312 126.714844 198.320312 135 L 198.320312 151.597656 C 179.25 132.113281 152.675781 120 123.320312 120 C 115.039062 120 108.320312 126.714844 108.320312 135 C 108.320312 187.804688 147.503906 231.625 198.320312 238.925781 L 198.320312 271.597656 C 179.25 252.113281 152.675781 240 123.320312 240 C 115.039062 240 108.320312 246.714844 108.320312 255 C 108.320312 307.804688 147.503906 351.625 198.320312 358.925781 L 198.320312 406 C 198.320312 414.285156 205.035156 421 213.320312 421 C 221.605469 421 228.320312 414.285156 228.320312 406 L 228.320312 358.925781 C 279.136719 351.625 318.320312 307.804688 318.320312 255 C 318.320312 246.714844 311.605469 240 303.320312 240 C 273.96875 240 247.394531 252.113281 228.320312 271.597656 L 228.320312 238.925781 C 279.136719 231.625 318.320312 187.804688 318.320312 135 Z M 286.394531 151.925781 C 279.960938 179.71875 258.039062 201.640625 230.246094 208.074219 C 236.679688 180.285156 258.605469 158.359375 286.394531 151.925781 Z M 140.246094 151.925781 C 168.035156 158.359375 189.960938 180.285156 196.394531 208.074219 C 168.605469 201.640625 146.679688 179.71875 140.246094 151.925781 Z M 140.246094 271.925781 C 168.035156 278.359375 189.960938 300.285156 196.394531 328.074219 C 168.605469 321.640625 146.679688 299.71875 140.246094 271.925781 Z M 286.394531 271.925781 C 279.960938 299.71875 258.039062 321.640625 230.246094 328.074219 C 236.679688 300.285156 258.605469 278.359375 286.394531 271.925781 Z M 286.394531 271.925781 " data-original="#000000" class="active-path" data-old_color="#F9F5F5" fill="#FCFCFB"/>
</g></g> </svg>
