<?xml version="1.0"?>
<svg xmlns="http://www.w3.org/2000/svg" xmlns:xlink="http://www.w3.org/1999/xlink" version="1.1" id="Capa_1" x="0px" y="0px" viewBox="0 0 512 512" style="enable-background:new 0 0 512 512;" xml:space="preserve" width="512px" height="512px" class=""><g><g>
	<path d="M456.792,0v265.601c0,41.575-33.824,75.399-75.399,75.399H225.208v171h30V371h126.185   c58.117,0,105.399-47.282,105.399-105.399V0H456.792z" data-original="#000000" class="active-path" data-old_color="#000000" fill="#FFFFFF"/>
	<path d="M286.792,171V0h-30v141H130.31c-57.954,0-105.102,47.148-105.102,105.103V512h30V246.103   c0-41.412,33.69-75.103,75.102-75.103H286.792z" data-original="#000000" class="active-path" data-old_color="#000000" fill="#FFFFFF"/>
	<rect x="122.792" y="427.833" width="30" height="58" data-original="#000000" class="active-path" data-old_color="#000000" fill="#FFFFFF"/>
	<rect x="122.792" y="331.5" width="30" height="58" data-original="#000000" class="active-path" data-old_color="#000000" fill="#FFFFFF"/>
	<rect x="233.25" y="240.5" width="58" height="30" data-original="#000000" class="active-path" data-old_color="#000000" fill="#FFFFFF"/>
	<rect x="359.884" y="118.667" width="30" height="58" data-original="#000000" class="active-path" data-old_color="#000000" fill="#FFFFFF"/>
	<rect x="359.884" y="25" width="30" height="58" data-original="#000000" class="active-path" data-old_color="#000000" fill="#FFFFFF"/>
	<path d="M122.792,291v2.5h30V291c0-11.304,9.196-20.5,20.5-20.5h21.5v-30h-21.5C145.446,240.5,122.792,263.154,122.792,291z" data-original="#000000" class="active-path" data-old_color="#000000" fill="#FFFFFF"/>
	<path d="M389.884,216.333h-30c0,13.326-10.841,24.167-24.167,24.167h-6.833v30h6.833   C365.585,270.5,389.884,246.201,389.884,216.333z" data-original="#000000" class="active-path" data-old_color="#000000" fill="#FFFFFF"/>
</g></g> </svg>
