<?xml version="1.0"?>
<svg xmlns="http://www.w3.org/2000/svg" xmlns:xlink="http://www.w3.org/1999/xlink" version="1.1" id="Capa_1" x="0px" y="0px" viewBox="0 0 512 512" style="enable-background:new 0 0 512 512;" xml:space="preserve" width="512px" height="512px" class=""><g><g>
	<g>
		<path d="M504.5,440.888h-8.532v-157.3l4.584,2.838c1.23,0.761,2.593,1.124,3.94,1.124c2.511,0,4.965-1.261,6.384-3.553    c2.18-3.522,1.093-8.145-2.429-10.325l-168.338-104.21c-2.419-1.497-5.477-1.497-7.896,0l-92.762,57.424v-59.579H256    c4.142,0,7.5-3.358,7.5-7.5c0-4.142-3.358-7.5-7.5-7.5h-56.113c-4.142,0-7.5,3.358-7.5,7.5c0,19.184-6.124,36.964-16.518,51.491    c-10.519-14.747-16.579-32.663-16.579-51.491v-32.065c0-4.142-3.358-7.5-7.5-7.5c-4.142,0-7.5,3.358-7.5,7.5v24.565h-41.113    v-49.129h24.564c4.142,0,7.5-3.358,7.5-7.5V63.613c0-4.142-3.358-7.5-7.5-7.5c-4.142,0-7.5,3.358-7.5,7.5v24.564H87.145V63.613    c0-4.142-3.358-7.5-7.5-7.5c-4.142,0-7.5,3.358-7.5,7.5v24.564H39.048V63.613c0-4.142-3.358-7.5-7.5-7.5    c-4.142,0-7.5,3.358-7.5,7.5v32.064c0,4.142,3.358,7.5,7.5,7.5h24.564v49.129H15V127.74c0-4.142-3.358-7.5-7.5-7.5    S0,123.6,0,127.742v32.065c0,40.036,22.809,74.841,56.113,92.114v188.967h-8.532c-4.142,0-7.5,3.358-7.5,7.5    c0,4.142,3.358,7.5,7.5,7.5H504.5c4.142,0,7.5-3.358,7.5-7.5C512,444.246,508.642,440.888,504.5,440.888z M336.161,184.66    l144.807,89.642v102.457h-25.081v-88.694c0-4.142-3.358-7.5-7.5-7.5H223.936c-4.142,0-7.5,3.358-7.5,7.5v88.694h-25.081V274.302    L336.161,184.66z M440.887,295.565v17.064h-81.194v-17.064H440.887z M344.693,295.565v81.194h-17.064v-81.194H344.693z     M231.436,312.629v-17.064h81.193v17.064H231.436z M312.629,327.629v49.129h-81.193v-49.129H312.629z M207.119,167.307h17.333    v68.865l-9.577,5.928c-11.026-4.442-20.844-10.989-29.038-19.083C197.91,207.365,205.619,188.182,207.119,167.307z     M103.177,167.305h41.397v0.001c1.503,20.519,9.125,39.818,21.304,55.676c-16.019,15.77-37.984,25.517-62.185,25.517    c-0.173,0-0.344-0.006-0.516-0.007V167.305z M56.113,234.627C33.4,220.132,17.7,195.586,15.32,167.307h40.793V234.627z     M88.177,440.888H71.113v-49.129h17.064V440.888z M88.177,376.759H71.113V258.252c5.5,1.825,11.202,3.204,17.064,4.087V376.759z     M88.177,247.14c-5.909-1.047-11.618-2.68-17.064-4.839V103.178h17.064V247.14z M176.355,440.887h-73.178V263.493    c0.172,0.001,0.344,0.007,0.516,0.007c28.018,0,53.473-11.174,72.153-29.295c6.998,6.817,14.989,12.674,23.788,17.33    l-35.759,22.136c-3.522,2.18-4.609,6.803-2.429,10.325c2.18,3.521,6.802,4.61,10.325,2.429l4.584-2.838V440.887z M480.969,440.888    H191.355v-49.129h208.933c4.142,0,7.5-3.358,7.5-7.5c0-4.142-3.358-7.5-7.5-7.5h-40.594V327.63h81.194v49.129h-8.534    c-4.142,0-7.5,3.358-7.5,7.5c0,4.142,3.358,7.5,7.5,7.5h48.615V440.888z" data-original="#000000" class="active-path" data-old_color="#000000" fill="#FFFFFF"/>
	</g>
</g></g> </svg>
