<?xml version="1.0"?>
<svg xmlns="http://www.w3.org/2000/svg" height="512px" viewBox="0 0 512 512" width="512px" class=""><g><path d="m512 194v-102.300781h-38v-64.699219h-147.039062c-18.902344-16.800781-43.761719-27-70.960938-27s-52.058594 10.199219-70.960938 27h-147.039062v64.699219h-38v102.300781h27.261719v288h-27.261719v30h512v-30h-27.261719v-288zm-197.5-137c8.359375 9.761719 14.328125 21.640625 16.96875 34.699219 1 4.949219 1.53125 10.0625 1.53125 15.300781 0 5.03125-.480469 9.941406-1.421875 14.699219-3.207031 16.621093-11.796875 31.351562-23.867187 42.300781-.0625.058594-.121094.109375-.179688.160156-13.652344 12.328125-31.730469 19.839844-51.53125 19.839844s-37.878906-7.511719-51.53125-19.839844c-.058594-.050781-.117188-.101562-.179688-.160156-12.070312-10.949219-20.660156-25.679688-23.867187-42.300781-.941406-4.757813-1.421875-9.667969-1.421875-14.699219 0-5.238281.53125-10.351562 1.53125-15.300781 2.640625-13.058594 8.609375-24.9375 16.96875-34.699219 14.121094-16.519531 35.109375-27 58.5-27s44.378906 10.480469 58.5 27zm167.5 107h-135.488281c7.957031-12.578125 13.359375-26.921875 15.46875-42.300781h120.019531zm-38-107v34.699219h-82.101562c-1.769532-12.378907-5.667969-24.070313-11.320313-34.699219zm-376 0h93.421875c-5.652344 10.628906-9.550781 22.320312-11.320313 34.699219h-82.101562zm-38 64.699219h120.019531c2.109375 15.378906 7.511719 29.722656 15.46875 42.300781h-135.488281zm180 360.300781h-90v-206h90zm30 0v-236h-150v236h-32.738281v-287.839844h136.738281c17.5 12.488282 38.910156 19.839844 62 19.839844s44.5-7.351562 62-19.839844h136.738281v287.839844zm0 0" data-original="#000000" class="active-path" data-old_color="#fefefe" fill="#fefefe"/><path d="m274 394h148v-148h-148zm30-118h88v88h-88zm0 0" data-original="#000000" class="active-path" data-old_color="#fefefe" fill="#fefefe"/><path d="m241 60.621094v31.078125h-31.078125v30h31.078125v31.082031h30v-31.082031h31.078125v-30h-31.078125v-31.078125zm0 0" data-original="#000000" class="active-path" data-old_color="#fefefe" fill="#fefefe"/></g> </svg>
